<svg width="300" height="300" viewBox="0 0 300 300" fill="none" xmlns="http://www.w3.org/2000/svg">
<circle cx="150" cy="150" r="150" fill="url(#paint0_linear_101_2)"/>
<path d="M39.5001 133.222C42.5001 133.222 45.1112 133.796 47.3334 134.944C49.5927 136.056 51.3334 137.667 52.5556 139.778C53.7779 141.889 54.389 144.352 54.389 147.167C54.389 149.981 53.7779 152.444 52.5556 154.556C51.3334 156.667 49.5927 158.296 47.3334 159.444C45.1112 160.556 42.5001 161.111 39.5001 161.111H30.0001V172.111H20.889V133.222H39.5001ZM39.0556 153.167C40.9816 153.167 42.5001 152.63 43.6112 151.556C44.7593 150.481 45.3334 149.037 45.3334 147.222C45.3334 145.407 44.7593 143.963 43.6112 142.889C42.5001 141.815 40.9816 141.278 39.0556 141.278H29.9445V153.167H39.0556ZM74.0756 144.056C75.3349 144.056 76.5941 144.296 77.8534 144.778C79.1126 145.222 80.2052 145.889 81.1312 146.778L77.4645 153.167C76.6867 152.685 75.9645 152.333 75.2978 152.111C74.6312 151.889 73.9275 151.778 73.1867 151.778C71.3349 151.778 69.8719 152.37 68.7978 153.556C67.7237 154.741 67.1867 156.481 67.1867 158.778V172.111H58.4645V144.667H66.0756L66.7423 148.111C68.52 145.407 70.9645 144.056 74.0756 144.056ZM96.8668 172.722C93.8298 172.722 91.1631 172.13 88.8668 170.944C86.6076 169.722 84.8668 168.037 83.6446 165.889C82.4224 163.741 81.8113 161.241 81.8113 158.389C81.8113 155.537 82.4224 153.037 83.6446 150.889C84.8668 148.741 86.6076 147.074 88.8668 145.889C91.1631 144.667 93.8298 144.056 96.8668 144.056C99.9039 144.056 102.571 144.667 104.867 145.889C107.163 147.074 108.922 148.741 110.145 150.889C111.367 153.037 111.978 155.537 111.978 158.389C111.978 161.241 111.367 163.741 110.145 165.889C108.922 168.037 107.163 169.722 104.867 170.944C102.571 172.13 99.9039 172.722 96.8668 172.722ZM96.8668 165.333C98.7928 165.333 100.348 164.685 101.533 163.389C102.719 162.093 103.311 160.426 103.311 158.389C103.311 156.352 102.719 154.685 101.533 153.389C100.348 152.093 98.7928 151.444 96.8668 151.444C94.9779 151.444 93.4409 152.093 92.2557 153.389C91.0705 154.685 90.4779 156.352 90.4779 158.389C90.4779 160.426 91.0705 162.093 92.2557 163.389C93.4409 164.685 94.9779 165.333 96.8668 165.333ZM128.451 144.667H135.895V151.667H128.451V172.111H119.618V151.667H114.784V144.667H119.618V143.222C119.618 140.778 120.136 138.741 121.173 137.111C122.247 135.481 123.636 134.278 125.34 133.5C127.044 132.722 128.877 132.333 130.84 132.333C133.914 132.333 136.544 133.185 138.729 134.889L135.784 140.389C135.118 139.981 134.507 139.685 133.951 139.5C133.433 139.315 132.84 139.222 132.173 139.222C131.025 139.222 130.118 139.556 129.451 140.222C128.784 140.852 128.451 141.852 128.451 143.222V144.667ZM153.067 144.056C156.067 144.056 158.66 144.63 160.845 145.778C163.03 146.889 164.697 148.481 165.845 150.556C167.03 152.593 167.622 154.981 167.622 157.722C167.622 158.611 167.53 159.704 167.345 161H147.178C147.437 162.407 148.197 163.556 149.456 164.444C150.715 165.296 152.326 165.722 154.289 165.722C155.66 165.722 156.993 165.519 158.289 165.111C159.585 164.704 160.697 164.13 161.622 163.389L166.178 168.278C164.622 169.722 162.771 170.833 160.622 171.611C158.511 172.389 156.252 172.778 153.845 172.778C150.66 172.778 147.9 172.204 145.567 171.056C143.234 169.87 141.437 168.204 140.178 166.056C138.919 163.907 138.289 161.37 138.289 158.444C138.289 155.63 138.9 153.13 140.122 150.944C141.382 148.759 143.122 147.074 145.345 145.889C147.567 144.667 150.141 144.056 153.067 144.056ZM153.345 150.944C151.604 150.944 150.178 151.389 149.067 152.278C147.993 153.167 147.382 154.407 147.234 156H159.345C159.234 154.407 158.641 153.167 157.567 152.278C156.53 151.389 155.122 150.944 153.345 150.944ZM183.118 172.833C178.266 172.833 174.044 171.611 170.451 169.167L173.784 163.167C175.118 163.981 176.655 164.611 178.395 165.056C180.173 165.5 181.933 165.722 183.673 165.722C186.081 165.722 187.284 165.074 187.284 163.778C187.284 163.111 186.951 162.611 186.284 162.278C185.618 161.944 184.507 161.722 182.951 161.611C179.47 161.426 176.692 160.556 174.618 159C172.581 157.444 171.562 155.407 171.562 152.889C171.562 150.148 172.673 147.981 174.895 146.389C177.118 144.759 180.118 143.944 183.895 143.944C186.044 143.944 188.081 144.204 190.007 144.722C191.97 145.241 193.655 145.963 195.062 146.889L191.673 152.722C189.599 151.537 187.136 150.944 184.284 150.944C181.47 150.944 180.062 151.611 180.062 152.944C180.062 153.5 180.34 153.926 180.895 154.222C181.488 154.519 182.47 154.741 183.84 154.889C187.766 155.185 190.747 156.074 192.784 157.556C194.858 159.037 195.895 161.111 195.895 163.778C195.895 166.593 194.766 168.815 192.507 170.444C190.247 172.037 187.118 172.833 183.118 172.833ZM211.221 172.833C206.369 172.833 202.147 171.611 198.554 169.167L201.888 163.167C203.221 163.981 204.758 164.611 206.499 165.056C208.277 165.5 210.036 165.722 211.777 165.722C214.184 165.722 215.388 165.074 215.388 163.778C215.388 163.111 215.054 162.611 214.388 162.278C213.721 161.944 212.61 161.722 211.054 161.611C207.573 161.426 204.795 160.556 202.721 159C200.684 157.444 199.665 155.407 199.665 152.889C199.665 150.148 200.777 147.981 202.999 146.389C205.221 144.759 208.221 143.944 211.999 143.944C214.147 143.944 216.184 144.204 218.11 144.722C220.073 145.241 221.758 145.963 223.165 146.889L219.777 152.722C217.702 151.537 215.24 150.944 212.388 150.944C209.573 150.944 208.165 151.611 208.165 152.944C208.165 153.5 208.443 153.926 208.999 154.222C209.591 154.519 210.573 154.741 211.943 154.889C215.869 155.185 218.851 156.074 220.888 157.556C222.962 159.037 223.999 161.111 223.999 163.778C223.999 166.593 222.869 168.815 220.61 170.444C218.351 172.037 215.221 172.833 211.221 172.833ZM241.778 172.722C238.741 172.722 236.074 172.13 233.778 170.944C231.519 169.722 229.778 168.037 228.556 165.889C227.333 163.741 226.722 161.241 226.722 158.389C226.722 155.537 227.333 153.037 228.556 150.889C229.778 148.741 231.519 147.074 233.778 145.889C236.074 144.667 238.741 144.056 241.778 144.056C244.815 144.056 247.482 144.667 249.778 145.889C252.074 147.074 253.833 148.741 255.056 150.889C256.278 153.037 256.889 155.537 256.889 158.389C256.889 161.241 256.278 163.741 255.056 165.889C253.833 168.037 252.074 169.722 249.778 170.944C247.482 172.13 244.815 172.722 241.778 172.722ZM241.778 165.333C243.704 165.333 245.259 164.685 246.445 163.389C247.63 162.093 248.222 160.426 248.222 158.389C248.222 156.352 247.63 154.685 246.445 153.389C245.259 152.093 243.704 151.444 241.778 151.444C239.889 151.444 238.352 152.093 237.167 153.389C235.982 154.685 235.389 156.352 235.389 158.389C235.389 160.426 235.982 162.093 237.167 163.389C238.352 164.685 239.889 165.333 241.778 165.333ZM277.526 144.056C278.785 144.056 280.045 144.296 281.304 144.778C282.563 145.222 283.656 145.889 284.582 146.778L280.915 153.167C280.137 152.685 279.415 152.333 278.748 152.111C278.082 151.889 277.378 151.778 276.637 151.778C274.785 151.778 273.322 152.37 272.248 153.556C271.174 154.741 270.637 156.481 270.637 158.778V172.111H261.915V144.667H269.526L270.193 148.111C271.971 145.407 274.415 144.056 277.526 144.056Z" fill="white"/>
<path d="M79.3445 131.433C79.1889 131.433 79.0223 131.356 78.8445 131.2C78.6667 131.067 78.5778 130.922 78.5778 130.767C78.5778 130.456 78.7001 129.956 78.9445 129.267C79.2112 128.578 79.5556 127.789 79.9778 126.9C80.4001 126.011 80.8556 125.133 81.3445 124.267L85.0445 117.733C87.8889 112.667 89.4001 109.578 89.5778 108.467C89.6001 108.111 89.7556 107.933 90.0445 107.933C90.2889 107.933 90.4556 108.033 90.5445 108.233C90.6334 108.411 90.6778 108.6 90.6778 108.8C90.6778 109.244 90.5223 109.878 90.2112 110.7C89.9223 111.522 89.4445 112.522 88.7778 113.7L86.0445 118.467C84.9112 120.444 84.0112 122.011 83.3445 123.167C82.7001 124.3 82.1889 125.211 81.8112 125.9C81.2556 126.967 80.7667 127.978 80.3445 128.933C79.9223 129.889 79.6889 130.6 79.6445 131.067C79.6445 131.311 79.5445 131.433 79.3445 131.433ZM94.8445 130.567C94.4667 130.567 94.2778 130.444 94.2778 130.2C94.2778 130.089 94.3889 129.889 94.6112 129.6C94.8556 129.311 95.0889 128.989 95.3112 128.633C95.8223 127.811 96.3001 126.878 96.7445 125.833C97.2112 124.789 97.4445 123.822 97.4445 122.933C97.4445 122.089 97.2001 121.411 96.7112 120.9C96.2445 120.367 95.6112 119.978 94.8112 119.733C94.0334 119.467 93.1667 119.333 92.2112 119.333C91.3001 119.333 90.0445 119.589 88.4445 120.1C86.8445 120.611 85.9223 120.867 85.6778 120.867C85.3223 120.867 85.1445 120.678 85.1445 120.3C85.1445 120.256 85.2001 120.133 85.3112 119.933C85.4223 119.711 85.5556 119.489 85.7112 119.267C85.8667 119.044 85.9889 118.922 86.0778 118.9L86.8778 118.767L89.8112 117.6C91.0556 117.089 92.3001 116.567 93.5445 116.033C94.8112 115.478 96.0556 114.911 97.2778 114.333C99.0334 113.511 100.667 112.678 102.178 111.833C103.711 110.967 105.089 110.133 106.311 109.333C106.533 109.178 106.689 109.089 106.778 109.067C106.889 109.022 106.989 109 107.078 109C107.433 109 107.611 109.167 107.611 109.5C107.611 109.7 107.444 109.944 107.111 110.233C105.667 111.433 102.567 113.144 97.8112 115.367C96.9889 115.678 95.8889 116.111 94.5112 116.667C93.1556 117.222 91.6556 117.833 90.0112 118.5C90.5445 118.367 91.0778 118.3 91.6112 118.3C92.8556 118.3 94.0223 118.456 95.1112 118.767C96.2001 119.056 97.0778 119.533 97.7445 120.2C98.4334 120.844 98.7778 121.711 98.7778 122.8C98.7778 123.667 98.5778 124.6 98.1778 125.6C97.8001 126.6 97.2889 127.611 96.6445 128.633L95.7445 130.033C95.5223 130.389 95.2223 130.567 94.8445 130.567ZM101.951 130.833C101.595 130.833 101.418 130.689 101.418 130.4C101.418 130.289 101.462 130.156 101.551 130C101.64 129.822 101.718 129.678 101.784 129.567L104.784 123.533C106.073 120.911 106.718 119.456 106.718 119.167C106.718 118.856 106.873 118.7 107.184 118.7C107.607 118.7 107.818 118.922 107.818 119.367C107.818 119.522 107.718 119.856 107.518 120.367C107.318 120.878 107.062 121.456 106.751 122.1C106.218 123.256 105.773 124.144 105.418 124.767C106.084 123.989 106.762 123.256 107.451 122.567C108.14 121.878 108.84 121.222 109.551 120.6C111.662 118.756 113.284 117.833 114.418 117.833C115.195 117.833 115.584 118.2 115.584 118.933C115.584 119.6 115.018 121.1 113.884 123.433C112.751 125.789 112.184 127.278 112.184 127.9C112.184 128.189 112.284 128.333 112.484 128.333C112.551 128.333 112.651 128.311 112.784 128.267C112.94 128.2 113.095 128.167 113.251 128.167C113.629 128.167 113.818 128.344 113.818 128.7C113.818 129.144 113.34 129.367 112.384 129.367C111.94 129.367 111.618 129.267 111.418 129.067C111.218 128.844 111.118 128.556 111.118 128.2C111.118 127.133 111.662 125.511 112.751 123.333C113.84 121.178 114.384 119.878 114.384 119.433C114.384 119.167 114.284 119.033 114.084 119.033C113.595 119.033 112.807 119.444 111.718 120.267C110.54 121.156 109.362 122.178 108.184 123.333C107.007 124.489 105.884 125.811 104.818 127.3L102.484 130.533C102.351 130.733 102.173 130.833 101.951 130.833ZM119.066 129.833C117.266 129.833 116.366 128.822 116.366 126.8C116.366 125.867 116.589 124.889 117.033 123.867C117.477 122.844 118.066 121.9 118.8 121.033C119.533 120.144 120.344 119.422 121.233 118.867C122.144 118.311 123.066 118.033 124 118.033C124.822 118.033 125.422 118.344 125.8 118.967C126.177 119.589 126.366 120.278 126.366 121.033C126.366 122.033 126.166 123.056 125.766 124.1C125.366 125.122 124.822 126.067 124.133 126.933C123.444 127.8 122.666 128.5 121.8 129.033C120.933 129.567 120.022 129.833 119.066 129.833ZM119.033 128.767C119.166 128.767 119.244 128.756 119.266 128.733C120.133 128.622 120.933 128.311 121.666 127.8C122.4 127.289 123.033 126.656 123.566 125.9C124.122 125.122 124.544 124.289 124.833 123.4C125.122 122.511 125.266 121.633 125.266 120.767C125.266 120.256 125.122 119.856 124.833 119.567C124.544 119.278 124.177 119.133 123.733 119.133C123.089 119.133 122.4 119.4 121.666 119.933C120.955 120.467 120.277 121.144 119.633 121.967C119.011 122.789 118.5 123.656 118.1 124.567C117.7 125.456 117.5 126.256 117.5 126.967C117.5 128.167 118.011 128.767 119.033 128.767ZM139.267 130.667C138.711 130.667 138.278 130.444 137.967 130C137.656 129.556 137.5 129 137.5 128.333C137.5 128.156 137.511 127.889 137.533 127.533C137.556 127.156 137.578 126.767 137.6 126.367C137.644 125.944 137.678 125.578 137.7 125.267C137.722 124.933 137.744 124.733 137.767 124.667L137.733 124.533C137.533 124.822 137.256 125.2 136.9 125.667C136.567 126.133 136.211 126.611 135.833 127.1C135.478 127.567 135.156 127.978 134.867 128.333C134.4 128.889 133.889 129.322 133.333 129.633C132.778 129.944 132.267 130.1 131.8 130.1C131.244 130.1 130.778 129.822 130.4 129.267C130.022 128.689 129.833 127.867 129.833 126.8C129.833 125.778 130 124.633 130.333 123.367L129.3 124.567C129.144 124.722 129.011 124.856 128.9 124.967C128.789 125.056 128.678 125.1 128.567 125.1C128.456 125.1 128.344 125.056 128.233 124.967C128.144 124.856 128.1 124.722 128.1 124.567C128.1 124.411 128.156 124.278 128.267 124.167C128.489 123.922 128.744 123.611 129.033 123.233C129.344 122.833 129.7 122.378 130.1 121.867C130.433 121.4 130.989 120.533 131.767 119.267C131.9 119.044 132.078 118.933 132.3 118.933C132.678 118.933 132.867 119.111 132.867 119.467C132.867 119.578 132.811 119.733 132.7 119.933C132.589 120.111 132.433 120.456 132.233 120.967C131.833 122.011 131.522 123.044 131.3 124.067C131.078 125.067 130.967 126.056 130.967 127.033C130.967 127.878 131.022 128.433 131.133 128.7C131.244 128.944 131.411 129.067 131.633 129.067C132.344 129.067 133.2 128.533 134.2 127.467C134.489 127.156 134.922 126.633 135.5 125.9C136.078 125.144 136.678 124.267 137.3 123.267C137.922 122.244 138.411 121.2 138.767 120.133L139.267 118.667C139.333 118.467 139.478 118.367 139.7 118.367C140.1 118.367 140.3 118.556 140.3 118.933C140.3 119.067 140.178 119.422 139.933 120C139.689 120.556 139.444 121.433 139.2 122.633C139.044 123.389 138.9 124.189 138.767 125.033C138.656 125.878 138.6 126.689 138.6 127.467C138.6 128.956 138.844 129.7 139.333 129.7C139.733 129.7 140.244 129.489 140.867 129.067C141.489 128.644 142.144 128.111 142.833 127.467C143.522 126.822 144.144 126.156 144.7 125.467C145.211 124.867 145.733 124.178 146.267 123.4C146.8 122.622 147.244 121.844 147.6 121.067C147.978 120.267 148.167 119.578 148.167 119C148.167 118.422 148.011 118.044 147.7 117.867C147.656 117.844 147.356 117.8 146.8 117.733C146.489 117.689 146.333 117.511 146.333 117.2C146.333 116.844 146.511 116.667 146.867 116.667C147.578 116.667 148.144 116.867 148.567 117.267C149.011 117.667 149.233 118.211 149.233 118.9C149.233 120.767 147.989 123.178 145.5 126.133C142.967 129.156 140.889 130.667 139.267 130.667ZM158.25 141.033C156.894 141.033 156.217 140.233 156.217 138.633C156.217 137.278 156.506 135.967 157.083 134.7C157.172 134.478 157.317 134.367 157.517 134.367C157.917 134.367 158.117 134.544 158.117 134.9C158.117 134.989 158.083 135.1 158.017 135.233C157.972 135.389 157.917 135.556 157.85 135.733C157.694 136.156 157.572 136.6 157.483 137.067C157.394 137.533 157.35 138.022 157.35 138.533C157.35 139.111 157.428 139.5 157.583 139.7C157.739 139.9 157.939 140 158.183 140C158.761 140 159.439 139.733 160.217 139.2C161.017 138.667 161.839 137.822 162.683 136.667C163.283 135.844 163.906 134.867 164.55 133.733C165.194 132.6 165.883 131.3 166.617 129.833C167.594 127.9 168.494 125.933 169.317 123.933C168.761 124.644 168.183 125.333 167.583 126C166.983 126.667 166.339 127.289 165.65 127.867C163.806 129.444 162.272 130.233 161.05 130.233C159.583 130.233 158.85 129.389 158.85 127.7C158.85 127.1 158.961 126.378 159.183 125.533C159.428 124.689 159.761 123.722 160.183 122.633C160.25 122.456 160.283 122.311 160.283 122.2C160.283 122.067 160.317 121.933 160.383 121.8C160.739 121.022 161.328 120.156 162.15 119.2C162.328 119 162.483 118.9 162.617 118.9C162.95 118.9 163.117 119.144 163.117 119.633C160.961 122.811 159.883 125.5 159.883 127.7C159.883 128.633 160.25 129.1 160.983 129.1C161.806 129.1 162.95 128.533 164.417 127.4C165.461 126.6 166.428 125.7 167.317 124.7C168.206 123.678 169.006 122.622 169.717 121.533C170.206 120.8 170.594 120.156 170.883 119.6C171.194 119.022 171.383 118.633 171.45 118.433C171.561 118.1 171.717 117.933 171.917 117.933C172.339 117.933 172.55 118.111 172.55 118.467C172.55 118.644 172.461 118.967 172.283 119.433C172.128 119.878 171.928 120.411 171.683 121.033C171.328 121.944 170.817 123.167 170.15 124.7C169.483 126.233 168.65 128.056 167.65 130.167C166.406 132.789 165.183 134.933 163.983 136.6C163.094 137.867 162.117 138.922 161.05 139.767C160.006 140.611 159.072 141.033 158.25 141.033ZM175.414 129.833C173.614 129.833 172.714 128.822 172.714 126.8C172.714 125.867 172.936 124.889 173.381 123.867C173.825 122.844 174.414 121.9 175.147 121.033C175.881 120.144 176.692 119.422 177.581 118.867C178.492 118.311 179.414 118.033 180.347 118.033C181.17 118.033 181.77 118.344 182.147 118.967C182.525 119.589 182.714 120.278 182.714 121.033C182.714 122.033 182.514 123.056 182.114 124.1C181.714 125.122 181.17 126.067 180.481 126.933C179.792 127.8 179.014 128.5 178.147 129.033C177.281 129.567 176.37 129.833 175.414 129.833ZM175.381 128.767C175.514 128.767 175.592 128.756 175.614 128.733C176.481 128.622 177.281 128.311 178.014 127.8C178.747 127.289 179.381 126.656 179.914 125.9C180.47 125.122 180.892 124.289 181.181 123.4C181.47 122.511 181.614 121.633 181.614 120.767C181.614 120.256 181.47 119.856 181.181 119.567C180.892 119.278 180.525 119.133 180.081 119.133C179.436 119.133 178.747 119.4 178.014 119.933C177.303 120.467 176.625 121.144 175.981 121.967C175.358 122.789 174.847 123.656 174.447 124.567C174.047 125.456 173.847 126.256 173.847 126.967C173.847 128.167 174.358 128.767 175.381 128.767ZM193.114 131.133C192.025 131.133 191.481 130.344 191.481 128.767C191.481 127.922 191.681 126.9 192.081 125.7C189.392 128.833 187.281 130.4 185.748 130.4C184.481 130.4 183.848 129.633 183.848 128.1C183.848 127.522 183.937 126.833 184.114 126.033C184.314 125.211 184.57 124.367 184.881 123.5C185.214 122.633 185.57 121.822 185.948 121.067C186.325 120.311 186.703 119.7 187.081 119.233C187.214 119.078 187.381 119 187.581 119C187.692 119 187.803 119.044 187.914 119.133C188.025 119.2 188.081 119.311 188.081 119.467C188.081 119.6 188.003 119.789 187.848 120.033C186.848 121.678 186.137 123.111 185.714 124.333C185.181 125.733 184.914 126.944 184.914 127.967C184.914 128.922 185.159 129.4 185.648 129.4C185.959 129.4 186.37 129.244 186.881 128.933C187.392 128.622 187.914 128.244 188.448 127.8C189.003 127.333 189.481 126.9 189.881 126.5C190.992 125.322 191.992 124.067 192.881 122.733C193.281 122.111 193.637 121.511 193.948 120.933C194.281 120.333 194.581 119.711 194.848 119.067C194.959 118.822 195.048 118.644 195.114 118.533C195.203 118.4 195.325 118.333 195.481 118.333C195.948 118.333 196.181 118.511 196.181 118.867C196.181 119.089 196.103 119.244 195.948 119.333C193.681 123.933 192.548 127.1 192.548 128.833C192.548 129.3 192.592 129.633 192.681 129.833C192.77 130.011 192.925 130.1 193.148 130.1C193.459 130.1 193.937 129.9 194.581 129.5C195.248 129.1 196.025 128.489 196.914 127.667L200.414 124.467C200.592 124.289 200.759 124.2 200.914 124.2C201.27 124.2 201.448 124.367 201.448 124.7C201.448 124.989 200.748 125.767 199.348 127.033C198.748 127.589 198.214 128.056 197.748 128.433C197.281 128.811 196.848 129.144 196.448 129.433C195.692 129.967 195.025 130.378 194.448 130.667C193.87 130.978 193.425 131.133 193.114 131.133ZM198.273 130.833C197.917 130.833 197.739 130.689 197.739 130.4C197.739 130.267 197.773 130.133 197.839 130C197.928 129.867 197.995 129.756 198.039 129.667L201.073 123.533C202.362 120.911 203.006 119.456 203.006 119.167C203.006 118.856 203.162 118.7 203.473 118.7C203.895 118.7 204.106 118.911 204.106 119.333C204.106 119.556 204.006 119.911 203.806 120.4C203.606 120.889 203.35 121.456 203.039 122.1C202.506 123.256 202.062 124.144 201.706 124.767C202.373 123.989 203.05 123.256 203.739 122.567C204.428 121.878 205.128 121.222 205.839 120.6C207.95 118.756 209.573 117.833 210.706 117.833C211.484 117.833 211.873 118.2 211.873 118.933C211.873 119.644 211.639 120 211.173 120C210.95 120 210.784 119.811 210.673 119.433C210.606 119.167 210.45 119.033 210.206 119.033C209.828 119.033 209.095 119.444 208.006 120.267C206.806 121.156 205.595 122.211 204.373 123.433C203.173 124.656 201.895 126.211 200.539 128.1L198.873 130.433C198.784 130.544 198.695 130.633 198.606 130.7C198.539 130.789 198.428 130.833 198.273 130.833Z" fill="white"/>
<defs>
<linearGradient id="paint0_linear_101_2" x1="150" y1="0" x2="150" y2="300" gradientUnits="userSpaceOnUse">
<stop stop-color="#2B00E3"/>
<stop offset="1" stop-color="#13265C"/>
</linearGradient>
</defs>
</svg>
